<?xml version="1.0" encoding="UTF-8"?><svg id="Layer_1" xmlns="http://www.w3.org/2000/svg" viewBox="0 0 1776.6 714.87"><defs><style>.cls-1{fill:#f46f00;stroke-width:0px;}</style></defs><rect class="cls-1" x="168.39" y="71.65" width="137.33" height="66.61" transform="translate(17.38 242.62) rotate(-55.96)"/><rect class="cls-1" x="192.24" y="177.19" width="136.23" height="66.61" transform="translate(-59.82 308.38) rotate(-55.96)"/><path class="cls-1" d="m193.19,469.6h85.76c13.74,0,24.9,11.16,24.9,24.9v41.7h-110.66v-66.61h0Z" transform="translate(-307.32 427.28) rotate(-55.96)"/><path class="cls-1" d="m295.19,469.6h87.94c12.54,0,22.72,10.18,22.72,22.72v43.89h-110.66v-66.61h0Z" transform="translate(-262.42 511.79) rotate(-55.96)"/><rect class="cls-1" x="189.65" y="298.19" width="110.94" height="66.61" transform="translate(227.6 -80.41) rotate(34.04)"/><rect class="cls-1" x="276.39" y="53.65" width="137.33" height="66.61" rx="20" ry="20" transform="translate(79.83 324.18) rotate(-55.96)"/><rect class="cls-1" x="85.39" y="196.65" width="137.33" height="66.61" rx="20" ry="20" transform="translate(-122.73 228.86) rotate(-55.96)"/><rect class="cls-1" x="217.93" y="65.11" width="146.58" height="62.2" transform="translate(478.65 338.97) rotate(-145.96)"/><rect class="cls-1" x="135.52" y="189.27" width="143.24" height="61.1" transform="translate(255.71 517.93) rotate(-145.96)"/><rect class="cls-1" x="341.09" y="227.11" width="56" height="62.2" transform="translate(738.19 516.42) rotate(180)"/><rect class="cls-1" x="622.93" y="224.5" width="100.17" height="57.81" transform="translate(1346.02 506.81) rotate(180)"/><rect class="cls-1" x="244.93" y="509.5" width="102.17" height="57.81" transform="translate(592.02 1076.81) rotate(180)"/><rect class="cls-1" x="55.09" y="509.5" width="97" height="57.81" transform="translate(207.19 1076.81) rotate(180)"/><rect class="cls-1" x="454.93" y="430.5" width="102.17" height="57.81" transform="translate(1012.02 918.81) rotate(180)"/><rect class="cls-1" x="573.93" y="431.5" width="102.17" height="57.81" transform="translate(1250.02 920.81) rotate(180)"/><rect class="cls-1" x="843.09" y="113.5" width="112" height="58.81" rx="15.52" ry="15.52" transform="translate(1798.19 285.81) rotate(180)"/><rect class="cls-1" x="831.93" y="191.5" width="95.17" height="58.81" transform="translate(1759.02 441.81) rotate(180)"/><path class="cls-1" d="m276.43,167.56h148.61c11.21,0,20.31,9.1,20.31,20.31v46.3h-168.92v-66.61h0Z" transform="translate(-7.59 387.45) rotate(-55.96)"/><path class="cls-1" d="m206.14,253.77h357.37c10.84,0,19.64,8.8,19.64,19.64v46.97H206.14v-66.61h0Z" transform="translate(-64.16 453.36) rotate(-55.96)"/><path class="cls-1" d="m442.02,124.68h244.97c12.8,0,23.2,10.39,23.2,23.2v43.41h-268.17v-66.61h0Z" transform="translate(122.67 546.9) rotate(-55.96)"/><path class="cls-1" d="m-46.15,376.39h308.41c14.71,0,26.65,11.94,26.65,26.65v39.95H-46.15v-66.61h0Z" transform="translate(-286.05 280.91) rotate(-55.96)"/><path class="cls-1" d="m103.29,475.11h70.13c14.71,0,26.65,11.94,26.65,26.65v39.95h-96.79v-66.61h0Z" transform="translate(-354.51 349.47) rotate(-55.96)"/><rect class="cls-1" x="174.29" y="371.11" width="96.79" height="66.61" transform="translate(-237.08 362.53) rotate(-55.96)"/><path class="cls-1" d="m559.62,162.22h142.62c12.62,0,22.87,10.25,22.87,22.87v43.73h-165.49v-66.61h0Z" transform="translate(120.73 618.33) rotate(-55.96)"/><path class="cls-1" d="m658.62,162.22h142.52c12.68,0,22.97,10.29,22.97,22.97v43.63h-165.49v-66.61h0Z" transform="translate(164.31 700.36) rotate(-55.96)"/><path class="cls-1" d="m373.62,448.22h140.73c13.67,0,24.76,11.1,24.76,24.76v41.84h-165.49v-66.61h0Z" transform="translate(-198.12 590.09) rotate(-55.96)"/><path class="cls-1" d="m467.62,450.22h143.59c12.09,0,21.9,9.82,21.9,21.9v44.7h-165.49v-66.61h0Z" transform="translate(-158.4 668.86) rotate(-55.96)"/><path class="cls-1" d="m561.62,450.22h143.81c11.97,0,21.68,9.71,21.68,21.68v44.93h-165.49v-66.61h0Z" transform="translate(-117.02 746.75) rotate(-55.96)"/><path class="cls-1" d="m655.62,450.22h142.17c12.87,0,23.32,10.45,23.32,23.32v43.28h-165.49v-66.61h0Z" transform="translate(-75.65 824.64) rotate(-55.96)"/><path class="cls-1" d="m749.62,449.22h145.41c11.09,0,20.09,9,20.09,20.09v46.52h-165.49v-66.61h0Z" transform="translate(-33.45 902.09) rotate(-55.96)"/><path class="cls-1" d="m843.62,449.22h142.92c12.46,0,22.57,10.11,22.57,22.57v44.03h-165.49v-66.61h0Z" transform="translate(7.93 979.98) rotate(-55.96)"/><path class="cls-1" d="m937.62,449.22h144.35c11.67,0,21.14,9.47,21.14,21.14v45.46h-165.49v-66.61h0Z" transform="translate(49.3 1057.86) rotate(-55.96)"/><path class="cls-1" d="m1061.47,337.34h43.46c12.58,0,22.79,10.21,22.79,22.79v43.82h-66.24v-66.61h0Z" transform="translate(174.68 1070.12) rotate(-55.96)"/><rect class="cls-1" x="1185.47" y="600.34" width="66.24" height="66.61" transform="translate(11.33 1288.62) rotate(-55.96)"/><rect class="cls-1" x="1423.3" y="482.73" width="85.73" height="66.61" transform="translate(217.76 1442) rotate(-55.96)"/><rect class="cls-1" x="1476.94" y="503.94" width="86.17" height="31.31" transform="translate(2488.64 1801.1) rotate(-145.96)"/><rect class="cls-1" x="1522.25" y="433.93" width="86.17" height="32.4" transform="translate(2610.37 1699.46) rotate(-145.96)"/><path class="cls-1" d="m1481.55,407.75h48.49c12.59,0,22.81,10.22,22.81,22.81v43.79h-71.3v-66.61h0Z" transform="translate(302.35 1451.28) rotate(-55.96)"/><rect class="cls-1" x="1522.55" y="487.75" width="71.3" height="66.61" transform="translate(254.11 1520.47) rotate(-55.96)"/><path class="cls-1" d="m1564.3,412.73h63.29c12.38,0,22.43,10.05,22.43,22.43v44.17h-85.73v-66.61h0Z" transform="translate(337.82 1528.02) rotate(-55.96)"/><rect class="cls-1" x="748.62" y="167.22" width="165.49" height="66.61" rx="10.13" ry="10.13" transform="translate(199.78 777.13) rotate(-55.96)"/><path class="cls-1" d="m842.62,167.22h160.33c2.85,0,5.17,2.32,5.17,5.17v61.44h-165.49v-66.61h0Z" transform="translate(241.15 855.02) rotate(-55.96)"/><path class="cls-1" d="m1317.76,396.5h100.66c2.03,0,3.67,1.64,3.67,3.67v42.14c0,7.17-5.82,13-13,13h-85.37c-5.31,0-9.63-4.31-9.63-9.63v-45.51c0-2.03,1.64-3.67,3.67-3.67Z" transform="translate(2736.19 851.81) rotate(180)"/><rect class="cls-1" x="1281.93" y="511.5" width="95.17" height="58.81" transform="translate(2659.02 1081.81) rotate(180)"/><path class="cls-1" d="m1218.62,450.22h157.81c4.24,0,7.68,3.44,7.68,7.68v58.93h-165.49v-66.61h0Z" transform="translate(172.16 1291.14) rotate(-55.96)"/><path class="cls-1" d="m1176.81,522.04h335.04c2.77,0,5.02,2.25,5.02,5.02v61.59h-340.06v-66.61h0Z" transform="translate(132.67 1360.43) rotate(-55.96)"/><rect class="cls-1" x="1038.93" y="146.5" width="95.17" height="58.81" transform="translate(2173.02 351.81) rotate(180)"/><path class="cls-1" d="m935.62,166.22h145.11c11.25,0,20.39,9.14,20.39,20.39v46.22h-165.49v-66.61h0Z" transform="translate(282.92 931.64) rotate(-55.96)"/><path class="cls-1" d="m1029.62,166.22h145.89c10.82,0,19.6,8.78,19.6,19.6v47.01h-165.49v-66.61h0Z" transform="translate(324.29 1009.53) rotate(-55.96)"/><rect class="cls-1" x="1133.93" y="427.5" width="95.17" height="58.81" transform="translate(2363.02 913.81) rotate(180)"/><path class="cls-1" d="m1030.62,447.22h143.45c12.17,0,22.05,9.88,22.05,22.05v44.56h-165.49v-66.61h0Z" transform="translate(91.9 1134.04) rotate(-55.96)"/><path class="cls-1" d="m1124.62,447.22h141.49c13.25,0,24.01,10.76,24.01,24.01v42.6h-165.49v-66.61h0Z" transform="translate(133.27 1211.93) rotate(-55.96)"/><rect class="cls-1" x="738" y="431.45" width="102.17" height="57.81" transform="translate(1578.17 920.71) rotate(180)"/><rect class="cls-1" x="857" y="432.45" width="102.17" height="57.81" transform="translate(1816.17 922.71) rotate(180)"/></svg>